<?xml version="1.0" encoding="UTF-8"?>
<svg version="1.1" xmlns="http://www.w3.org/2000/svg" width="1024" height="1024">
<path d="M0 0 C337.92 0 675.84 0 1024 0 C1024 337.92 1024 675.84 1024 1024 C686.08 1024 348.16 1024 0 1024 C0 686.08 0 348.16 0 0 Z " fill="#FEFEFE" transform="translate(0,0)"/>
<path d="M0 0 C10.81706786 9.07732539 21.56851917 19.49787818 27.96533203 32.29150391 C28.29106201 31.84460205 28.61679199 31.3977002 28.95239258 30.93725586 C40.54000817 15.1455167 52.65425719 2.23551552 68.96533203 -8.70849609 C70.29564453 -9.60181641 70.29564453 -9.60181641 71.65283203 -10.51318359 C73.96533203 -11.70849609 73.96533203 -11.70849609 77.96533203 -11.70849609 C78.31695947 -9.37665095 78.64963299 -7.04531991 78.96533203 -4.70849609 C79.06168945 -4.01949219 79.15804687 -3.33048828 79.25732422 -2.62060547 C80.84668314 10.36605218 80.84668314 10.36605218 77.84619141 15.03173828 C74.85389783 18.2287031 71.29067686 20.64941095 67.67529297 23.08984375 C55.79394972 31.43935424 45.09616695 47.33646595 40.96533203 61.29150391 C41.18651399 64.81378883 41.18651399 64.81378883 41.96533203 68.29150391 C42.89851909 73.1597385 43.08583534 77.73176077 43.02783203 82.66650391 C43.02332031 83.40255859 43.01880859 84.13861328 43.01416016 84.89697266 C43.00248345 86.69518549 42.98455214 88.49335588 42.96533203 90.29150391 C43.68076172 90.54544922 44.39619141 90.79939453 45.13330078 91.06103516 C53.7192878 94.79149848 62.6793868 102.14667007 68.68920898 109.36083984 C71.64554127 111.86847426 73.29580413 111.80688502 77.13720703 111.82275391 C78.95865234 111.83495972 78.95865234 111.83495972 80.81689453 111.84741211 C82.10337891 111.8289624 83.38986328 111.8105127 84.71533203 111.79150391 C86.02759766 111.78014404 87.33986328 111.76878418 88.69189453 111.75708008 C98.38902186 111.56325755 106.82925956 110.57085102 115.96533203 107.29150391 C116.59439453 107.0670459 117.22345703 106.84258789 117.87158203 106.61132812 C121.60918675 105.26341675 125.29948442 103.82312517 128.96533203 102.29150391 C108.69174054 92.66666754 90.05013698 91.41194604 67.96533203 93.29150391 C69.46862049 89.81811636 71.49941924 87.46887161 74.09033203 84.72900391 C77.52887849 81.07248303 80.08416834 77.46610295 82.65283203 73.16650391 C84.89971397 70.08031977 86.10031362 68.55896085 89.77001953 67.42431641 C93.60911948 67.26780634 97.19360572 67.65784735 100.96533203 68.29150391 C101.82175293 68.42685547 102.67817383 68.56220703 103.56054688 68.70166016 C117.3257868 70.99386033 129.53038399 75.03018768 141.96533203 81.29150391 C143.06490234 81.82775391 144.16447266 82.36400391 145.29736328 82.91650391 C147.53384289 84.01754002 149.75616247 85.13696303 151.96533203 86.29150391 C173.16653768 66.57713605 182.65383891 37.91305422 183.85205078 9.51806641 C183.88943359 8.45330078 183.92681641 7.38853516 183.96533203 6.29150391 C183.39427734 6.12134766 182.82322266 5.95119141 182.23486328 5.77587891 C181.42404297 5.53353516 180.61322266 5.29119141 179.77783203 5.04150391 C178.86388672 4.76951172 177.94994141 4.49751953 177.00830078 4.21728516 C174.94225461 3.58871912 172.88239699 2.9395163 170.82861328 2.27197266 C169.75998047 1.92779297 168.69134766 1.58361328 167.59033203 1.22900391 C166.12466797 0.74753906 166.12466797 0.74753906 164.62939453 0.25634766 C155.38153255 -2.17885694 146.26037673 -3.09546105 136.71533203 -3.08349609 C135.09159668 -3.08542969 135.09159668 -3.08542969 133.43505859 -3.08740234 C125.54990575 -2.98417511 118.59101275 -1.90613134 111.07470703 0.41650391 C107.96533203 1.29150391 107.96533203 1.29150391 102.96533203 1.29150391 C101.97533203 -6.29849609 100.98533203 -13.88849609 99.96533203 -21.70849609 C126.24751259 -32.97228776 160.27088804 -29.05606355 186.39990234 -18.74804688 C193.72642262 -15.68787564 200.88263108 -12.29439186 207.96533203 -8.70849609 C208.51142727 29.56857938 203.10423206 65.21260618 177.18164062 94.96362305 C176.63588379 95.60033936 176.09012695 96.23705566 175.52783203 96.89306641 C175.03412109 97.4533252 174.54041016 98.01358398 174.03173828 98.59082031 C172.61116893 100.52175402 172.61116893 100.52175402 172.96533203 104.29150391 C174.77196011 106.732748 174.77196011 106.732748 177.21533203 109.29150391 C199.41591952 134.65554414 208.25826865 167.30453386 208.02783203 200.41650391 C208.02332031 201.65916016 208.01880859 202.90181641 208.01416016 204.18212891 C208.00248127 207.21863893 207.98610343 210.25504478 207.96533203 213.29150391 C183.88323463 225.90898579 161.46778465 232.43218944 134.15283203 232.54150391 C132.87601563 232.56212891 131.59919922 232.58275391 130.28369141 232.60400391 C121.75440597 232.63872873 114.17927932 231.53900288 105.96533203 229.29150391 C104.17387467 228.85314764 102.38224102 228.41551033 100.59033203 227.97900391 C81.29380382 222.51351326 64.63235454 212.87653295 49.96533203 199.29150391 C49.14548828 198.54126953 48.32564453 197.79103516 47.48095703 197.01806641 C42.37774434 192.14361842 38.14370904 186.78303945 34.00830078 181.08837891 C32.06394489 178.42650737 30.04300438 175.8500757 27.96533203 173.29150391 C27.35947266 174.17451172 26.75361328 175.05751953 26.12939453 175.96728516 C15.58135446 191.15654794 2.97283041 206.07504354 -14.03466797 214.29150391 C-15.02466797 213.96150391 -16.01466797 213.63150391 -17.03466797 213.29150391 C-17.38921933 211.29515613 -17.71595729 209.29388614 -18.03466797 207.29150391 C-18.14697754 206.62006348 -18.25928711 205.94862305 -18.375 205.25683594 C-19.30587796 198.91123276 -20.34489577 191.75644661 -16.62109375 186.17138672 C-12.82141163 182.02459349 -8.40002503 178.59805857 -4.04785156 175.0546875 C4.54505274 167.52886227 14.28342925 152.8544142 15.20361328 141.29931641 C14.98255508 138.85680444 14.58547974 136.66012363 13.96533203 134.29150391 C12.86456097 129.84993116 12.849994 125.52713873 12.90283203 120.97900391 C12.90734375 120.2384375 12.91185547 119.49787109 12.91650391 118.73486328 C12.92821028 116.92037492 12.94614305 115.10592856 12.96533203 113.29150391 C12.42521484 113.03626953 11.88509766 112.78103516 11.32861328 112.51806641 C3.54599711 108.47882429 -3.03143382 103.77620763 -8.49951172 96.92431641 C-10.68138624 94.6036458 -12.95769576 93.89188873 -16.03466797 93.29150391 C-15.37466797 92.63150391 -14.71466797 91.97150391 -14.03466797 91.29150391 C-14.66373047 90.57607422 -15.29279297 89.86064453 -15.94091797 89.12353516 C-36.13002567 65.62025164 -46.74229351 38.26977775 -46.03466797 7.29150391 C-36.96991188 9.25587543 -27.66016969 13.66600218 -21.03466797 20.29150391 C-20.38280999 22.99967752 -19.81423223 25.68451718 -19.28466797 28.41650391 C-16.46555858 41.85682028 -12.24557986 54.09991853 -4.03466797 65.29150391 C-3.14134766 66.62375 -3.14134766 66.62375 -2.22998047 67.98291016 C0.55097353 70.90736535 2.53430222 71.30218178 6.46533203 72.04150391 C7.58939453 72.26322266 8.71345703 72.48494141 9.87158203 72.71337891 C10.89251953 72.90416016 11.91345703 73.09494141 12.96533203 73.29150391 C14.30167174 73.61257254 15.63672278 73.93981322 16.96533203 74.29150391 C14.90083811 55.1771378 6.10162687 40.01845948 -7.03466797 26.29150391 C-7.58638672 25.67662109 -8.13810547 25.06173828 -8.70654297 24.42822266 C-24.38496938 7.54674868 -49.28981963 -2.20385833 -71.97216797 -3.17724609 C-74.3261179 -3.21084571 -76.68050999 -3.22072047 -79.03466797 -3.20849609 C-80.90783691 -3.20317871 -80.90783691 -3.20317871 -82.81884766 -3.19775391 C-96.90082368 -2.94969255 -110.45784022 -0.58926593 -123.21337891 5.51318359 C-125.03466797 6.29150391 -125.03466797 6.29150391 -127.03466797 6.29150391 C-125.4691334 35.88097217 -117.94352513 65.08453233 -96.03466797 86.29150391 C-97.53716597 90.0730719 -99.70244474 91.85515629 -102.90966797 94.29150391 C-106.18192399 96.79209358 -109.1809751 99.31835413 -112.03466797 102.29150391 C-121.89631307 98.4237486 -129.16182424 83.97402545 -134.03466797 75.29150391 C-134.36708496 74.70981445 -134.69950195 74.128125 -135.04199219 73.52880859 C-144.82758459 56.18737103 -150.14817033 37.13737707 -151.03466797 17.29150391 C-151.09831543 16.24478516 -151.16196289 15.19806641 -151.22753906 14.11962891 C-151.42197428 10.71872679 -151.55013407 7.32112127 -151.65966797 3.91650391 C-151.71952881 2.83965332 -151.77938965 1.76280273 -151.84106445 0.65332031 C-151.94920972 -6.70406533 -151.94920972 -6.70406533 -149.47973633 -9.41625977 C-147.3880249 -10.76936029 -145.33431338 -11.75491114 -143.03466797 -12.70849609 C-142.07028809 -13.18319336 -142.07028809 -13.18319336 -141.08642578 -13.66748047 C-139.19460591 -14.59517142 -137.28431554 -15.44248182 -135.34716797 -16.27099609 C-134.65437744 -16.5690918 -133.96158691 -16.8671875 -133.24780273 -17.17431641 C-89.89230707 -35.46592688 -37.0066795 -29.9977592 0 0 Z " fill="#71B547" transform="translate(484.03466796875,408.70849609375)"/>
<path d="M0 0 C0.66741211 0.20898926 1.33482422 0.41797852 2.02246094 0.63330078 C18.02373724 5.68812895 30.09386373 14.37818937 42 26 C42.67804688 26.61617188 43.35609375 27.23234375 44.0546875 27.8671875 C56.79893162 39.70517426 64.61785315 57.86137912 66 75 C64.95779297 74.78150391 64.95779297 74.78150391 63.89453125 74.55859375 C61.92341029 74.17820199 59.93947509 73.86013564 57.94921875 73.59765625 C51.85441725 72.59767085 47.67626837 71.52365207 43.625 66.6875 C42.35587878 64.83181015 41.14918574 62.9322592 40 61 C39.39671875 59.9996875 38.7934375 58.999375 38.171875 57.96875 C33.42964832 49.30903171 30.79827665 40.28156294 28.26171875 30.78515625 C28.0404834 29.966521 27.81924805 29.14788574 27.59130859 28.30444336 C27.06729906 26.26227737 26.63053251 24.19816346 26.20703125 22.1328125 C24.62260945 18.02049444 22.78981872 16.98002604 19 14.8125 C17.9275 14.17957031 16.855 13.54664063 15.75 12.89453125 C11.3350201 10.53946191 6.66868759 8.7818746 2 7 C3.89367801 36.53290929 11.25464014 61.51524727 30 85 C30.49757813 85.6290625 30.99515625 86.258125 31.5078125 86.90625 C34.9576023 91.15882108 38.85947926 94.91016907 42.8125 98.6875 C45 101 45 101 45 103 C45.70640625 103.26554688 46.4128125 103.53109375 47.140625 103.8046875 C52.54722874 106.06482513 57.15627164 108.48667742 61 113 C61.95369021 117.16430343 62.09243769 120.89820506 62.03125 125.14453125 C62.00465248 128.42600084 62.25048282 130.97843343 63.0625 134.125 C64.80099136 141.31076427 63.7014828 145.66843459 60.5625 152.125 C60.02278564 153.24660522 60.02278564 153.24660522 59.47216797 154.39086914 C53.55036384 166.29959426 44.85472651 177.73227172 33.7265625 185.1953125 C30.84096306 188.16359387 30.58988934 188.57304351 30.37890625 192.43359375 C30.40929638 194.10240811 30.47140774 195.77089653 30.5625 197.4375 C30.58119141 198.27087891 30.59988281 199.10425781 30.61914062 199.96289062 C30.74854627 204.38716474 31.14373476 208.6479081 32 213 C51.23977007 207.56391112 64.98146008 187.54860391 76 172 C78.78694747 174.64850299 80.9666318 177.28383396 83.0625 180.5 C98.90794352 203.50473385 121.51399217 216.87094561 147 227 C143.54223211 255.56260355 121.41870231 281.28294677 100 299 C95.44913354 302.50176109 90.74480316 305.76828088 86 309 C85.16597656 309.58523438 84.33195313 310.17046875 83.47265625 310.7734375 C78.61682216 314.04683032 78.61682216 314.04683032 76.19921875 313.86328125 C73.03740945 312.62214474 70.26905434 310.84887926 67.4375 309 C66.81762207 308.59700684 66.19774414 308.19401367 65.55908203 307.77880859 C59.70092888 303.90601051 54.2900187 299.61923823 49 295 C48.02289063 294.15695312 47.04578125 293.31390625 46.0390625 292.4453125 C30.29031412 278.6147297 17.68648358 261.60961166 10 242 C9.61070312 241.0203125 9.22140625 240.040625 8.8203125 239.03125 C7.1834634 234.7415765 6 231.63999295 6 227 C5.26136719 227.19335938 4.52273438 227.38671875 3.76171875 227.5859375 C2.74722656 227.84632813 1.73273438 228.10671875 0.6875 228.375 C-0.29863281 228.63023437 -1.28476562 228.88546875 -2.30078125 229.1484375 C-36.97386281 237.13020284 -72.38950109 230.76719102 -103 213 C-103.34299838 196.76826109 -103.48734169 180.92016908 -100 165 C-99.8443457 164.28908203 -99.68869141 163.57816406 -99.52832031 162.84570312 C-94.55895878 141.40107313 -82.75763787 116.8009077 -66 102 C-65.34 102 -64.68 102 -64 102 C-63.505 100.515 -63.505 100.515 -63 99 C-61.60131836 97.6496582 -61.60131836 97.6496582 -59.83984375 96.30078125 C-59.21142578 95.81416016 -58.58300781 95.32753906 -57.93554688 94.82617188 C-57.27619141 94.32666016 -56.61683594 93.82714844 -55.9375 93.3125 C-55.27427734 92.80138672 -54.61105469 92.29027344 -53.92773438 91.76367188 C-52.2899169 90.50290591 -50.64556863 89.25063216 -49 88 C-50.35979137 84.98192647 -51.9215311 82.83828628 -54.1875 80.4375 C-64.84266608 68.43665042 -71.14942034 53.99411819 -75.375 38.6875 C-75.62580322 37.78088623 -75.87660645 36.87427246 -76.13500977 35.94018555 C-78.2687603 27.78644919 -79.16051559 19.80434059 -79.0625 11.375 C-79.05347656 10.35148437 -79.04445313 9.32796875 -79.03515625 8.2734375 C-79.02355469 7.52320313 -79.01195312 6.77296875 -79 6 C-54.85698581 -5.8155045 -25.67863881 -8.53296383 0 0 Z " fill="#288EC5" transform="translate(436,409)"/>
<path d="M0 0 C2.87851256 1.52239875 5.45055835 3.37443266 8.0625 5.3125 C8.80201904 5.85011963 9.54153809 6.38773926 10.3034668 6.94165039 C37.5149433 26.98590962 61.89534735 54.61045673 68 89 C68.37189897 91.49742371 68.72469446 93.99773674 69.0625 96.5 C69.32740234 98.43359375 69.32740234 98.43359375 69.59765625 100.40625 C69.92402365 103.32137629 70.08440155 106.07407969 70 109 C71.22589844 108.6390625 72.45179688 108.278125 73.71484375 107.90625 C100.65760529 100.46279522 125.61946652 103.16503541 151 114 C152.50012127 139.4353895 144.35819572 167.28733455 127.30517578 186.60107422 C126.77134277 187.18646973 126.23750977 187.77186523 125.6875 188.375 C125.17171387 188.94105957 124.65592773 189.50711914 124.12451172 190.09033203 C122.81627326 191.46039731 121.41377382 192.7391232 120 194 C116.71202081 194 115.36738601 193.36792519 112.46484375 191.91796875 C111.57216797 191.48033203 110.67949219 191.04269531 109.75976562 190.59179688 C107.90484579 189.66882984 106.05065592 188.74439402 104.19726562 187.81835938 C98.24040182 184.90166766 92.41536466 182.67651188 86 181 C84.88902954 180.70186401 84.88902954 180.70186401 83.75561523 180.39770508 C78.54625238 179.04440384 73.2982674 177.94359067 68 177 C67.32759277 176.87802246 66.65518555 176.75604492 65.96240234 176.63037109 C61.72507764 175.95451187 58.13121711 175.7818206 54 177 C51.10954259 179.6510637 49.19780588 182.35868074 47.10546875 185.671875 C44.42058537 189.9158836 41.16276701 193.37744789 37.75 197.0390625 C35.94775592 198.88625493 35.94775592 198.88625493 35 201 C36.27230469 200.7834375 36.27230469 200.7834375 37.5703125 200.5625 C57.96518448 197.3351796 76.02327602 200.14227923 95 208 C95.66 208.66 96.32 209.32 97 210 C83.54588605 217.72895908 68.09339396 220.2543767 52.8125 220.6875 C50.89727539 220.80641602 50.89727539 220.80641602 48.94335938 220.92773438 C39.56560546 221.13505747 39.56560546 221.13505747 35.05615234 217.86572266 C32.57411967 215.33441195 30.29018957 212.70397235 28 210 C25.18580634 207.64791563 22.10823443 206.05378439 18.82421875 204.421875 C15.32720626 202.55796299 12.7296471 200.89046352 10 198 C8.96916782 193.81142874 8.83972551 190.13408498 8.9375 185.8515625 C9.00141017 181.91309809 8.45466558 178.81545766 7.3046875 175.08984375 C6.34672143 168.51917906 9.01510541 163.25687632 12.0625 157.6875 C12.46879639 156.93766846 12.87509277 156.18783691 13.29370117 155.4152832 C18.0881376 146.77259466 24.10914003 139.77061098 31 132.75 C31.4741333 132.26619873 31.9482666 131.78239746 32.43676758 131.28393555 C34.58417192 129.15694449 36.50811626 127.28535995 39.13867188 125.75927734 C41.52580128 124.33683154 43.22406065 123.14754709 45 121 C45.97901028 116.66953122 45.75888699 112.53603604 45.5 108.125 C45.46390625 106.9596875 45.4278125 105.794375 45.390625 104.59375 C45.29659318 101.72577948 45.16532645 98.8645986 45 96 C44.34 95.67 43.68 95.34 43 95 C42.75246888 93.07848724 42.51169065 91.15574008 42.31347656 89.22851562 C41.81937123 85.71590388 40.64913337 82.54703491 39.375 79.25 C39.10993652 78.55825684 38.84487305 77.86651367 38.57177734 77.15380859 C34.37528706 66.55614131 28.36988431 57.6435148 21 49 C20.40832031 48.26265625 19.81664062 47.5253125 19.20703125 46.765625 C15.18616246 41.93029451 10.7234112 37.95588673 5.8125 34.0625 C5.21808105 33.58949463 4.62366211 33.11648926 4.01123047 32.62915039 C0.8129637 30.16118592 -2.15450721 28.26734696 -6 27 C-6.4846875 27.42410156 -6.969375 27.84820312 -7.46875 28.28515625 C-8.1390625 28.87167969 -8.809375 29.45820313 -9.5 30.0625 C-10.60214844 31.02929688 -10.60214844 31.02929688 -11.7265625 32.015625 C-13.13147943 33.24190988 -14.54187029 34.461993 -15.9609375 35.671875 C-33.50826548 50.71244184 -45.43231255 67.72697298 -52 90 C-52.52432617 89.79318604 -53.04865234 89.58637207 -53.58886719 89.37329102 C-55.97491421 88.43380479 -58.3624338 87.49811835 -60.75 86.5625 C-61.9875 86.07426758 -61.9875 86.07426758 -63.25 85.57617188 C-64.04921875 85.26357422 -64.8484375 84.95097656 -65.671875 84.62890625 C-66.4050293 84.34088135 -67.13818359 84.05285645 -67.89355469 83.75610352 C-69.9126509 83.03135375 -71.91084587 82.4810009 -74 82 C-73.45886614 76.69825816 -72.13312397 72.24569684 -69.9375 67.375 C-69.62659424 66.67914795 -69.31568848 65.9832959 -68.99536133 65.26635742 C-59.65465138 44.88810784 -44.73543081 26.59797015 -27 13 C-25.98292969 12.21367187 -24.96585937 11.42734375 -23.91796875 10.6171875 C-20.97225107 8.37177252 -17.99796334 6.17499301 -15 4 C-14.24460937 3.43539063 -13.48921875 2.87078125 -12.7109375 2.2890625 C-12.04320312 1.82242187 -11.37546875 1.35578125 -10.6875 0.875 C-10.13449219 0.48054688 -9.58148438 0.08609375 -9.01171875 -0.3203125 C-5.67820557 -1.44658686 -3.39157013 -0.85315895 0 0 Z " fill="#84C04B" transform="translate(517,301)"/>
<path d="M0 0 C10.81706786 9.07732539 21.56851917 19.49787818 27.96533203 32.29150391 C28.29106201 31.84460205 28.61679199 31.3977002 28.95239258 30.93725586 C40.54000817 15.1455167 52.65425719 2.23551552 68.96533203 -8.70849609 C70.29564453 -9.60181641 70.29564453 -9.60181641 71.65283203 -10.51318359 C73.96533203 -11.70849609 73.96533203 -11.70849609 77.96533203 -11.70849609 C78.31695947 -9.37665095 78.64963299 -7.04531991 78.96533203 -4.70849609 C79.06168945 -4.01949219 79.15804687 -3.33048828 79.25732422 -2.62060547 C80.84668314 10.36605218 80.84668314 10.36605218 77.84619141 15.03173828 C74.85389783 18.2287031 71.29067686 20.64941095 67.67529297 23.08984375 C55.79394972 31.43935424 45.09616695 47.33646595 40.96533203 61.29150391 C41.18651399 64.81378883 41.18651399 64.81378883 41.96533203 68.29150391 C42.89851909 73.1597385 43.08583534 77.73176077 43.02783203 82.66650391 C43.02332031 83.40255859 43.01880859 84.13861328 43.01416016 84.89697266 C43.00248345 86.69518549 42.98455214 88.49335588 42.96533203 90.29150391 C43.68076172 90.54544922 44.39619141 90.79939453 45.13330078 91.06103516 C53.51315901 94.70193908 65.19713685 102.66777363 68.96533203 111.29150391 C50.03241668 109.00590872 31.77982852 100.17351209 16.96533203 88.29150391 C16.45454102 87.89141113 15.94375 87.49131836 15.41748047 87.07910156 C9.41520876 82.36976632 3.97146568 77.87300919 -0.03466797 71.29150391 C5.88025475 71.74375152 11.31733091 72.44976441 16.96533203 74.29150391 C14.90083811 55.1771378 6.10162687 40.01845948 -7.03466797 26.29150391 C-7.58638672 25.67662109 -8.13810547 25.06173828 -8.70654297 24.42822266 C-24.38496938 7.54674868 -49.28981963 -2.20385833 -71.97216797 -3.17724609 C-74.3261179 -3.21084571 -76.68050999 -3.22072047 -79.03466797 -3.20849609 C-80.90783691 -3.20317871 -80.90783691 -3.20317871 -82.81884766 -3.19775391 C-96.90082368 -2.94969255 -110.45784022 -0.58926593 -123.21337891 5.51318359 C-125.03466797 6.29150391 -125.03466797 6.29150391 -127.03466797 6.29150391 C-125.4691334 35.88097217 -117.94352513 65.08453233 -96.03466797 86.29150391 C-97.53716597 90.0730719 -99.70244474 91.85515629 -102.90966797 94.29150391 C-106.18192399 96.79209358 -109.1809751 99.31835413 -112.03466797 102.29150391 C-121.89631307 98.4237486 -129.16182424 83.97402545 -134.03466797 75.29150391 C-134.36708496 74.70981445 -134.69950195 74.128125 -135.04199219 73.52880859 C-144.82758459 56.18737103 -150.14817033 37.13737707 -151.03466797 17.29150391 C-151.09831543 16.24478516 -151.16196289 15.19806641 -151.22753906 14.11962891 C-151.42197428 10.71872679 -151.55013407 7.32112127 -151.65966797 3.91650391 C-151.71952881 2.83965332 -151.77938965 1.76280273 -151.84106445 0.65332031 C-151.94920972 -6.70406533 -151.94920972 -6.70406533 -149.47973633 -9.41625977 C-147.3880249 -10.76936029 -145.33431338 -11.75491114 -143.03466797 -12.70849609 C-142.07028809 -13.18319336 -142.07028809 -13.18319336 -141.08642578 -13.66748047 C-139.19460591 -14.59517142 -137.28431554 -15.44248182 -135.34716797 -16.27099609 C-134.65437744 -16.5690918 -133.96158691 -16.8671875 -133.24780273 -17.17431641 C-89.89230707 -35.46592688 -37.0066795 -29.9977592 0 0 Z " fill="#2C3788" transform="translate(484.03466796875,408.70849609375)"/>
<path d="M0 0 C12.93033737 5.6644916 23.15609062 29.50116045 28.05078125 41.80078125 C34.80770025 59.7427461 37.3084229 77.99119709 37.17578125 97.05078125 C37.17126953 98.2934375 37.16675781 99.53609375 37.16210938 100.81640625 C37.15043049 103.85291627 37.13405265 106.88932213 37.11328125 109.92578125 C13.03118385 122.54326313 -9.38426613 129.06646678 -36.69921875 129.17578125 C-37.97603516 129.19640625 -39.25285156 129.21703125 -40.56835938 129.23828125 C-49.09764481 129.27300608 -56.67277146 128.17328022 -64.88671875 125.92578125 C-66.67817611 125.48742498 -68.46980976 125.04978768 -70.26171875 124.61328125 C-89.55824696 119.1477906 -106.21969624 109.51081029 -120.88671875 95.92578125 C-121.7065625 95.17554688 -122.52640625 94.4253125 -123.37109375 93.65234375 C-128.47430644 88.77789577 -132.70834174 83.4173168 -136.84375 77.72265625 C-138.78810589 75.06078471 -140.8090464 72.48435304 -142.88671875 69.92578125 C-143.79550781 71.25029297 -143.79550781 71.25029297 -144.72265625 72.6015625 C-155.27069632 87.79082528 -167.87922038 102.70932089 -184.88671875 110.92578125 C-185.87671875 110.59578125 -186.86671875 110.26578125 -187.88671875 109.92578125 C-188.24127011 107.92943347 -188.56800808 105.92816349 -188.88671875 103.92578125 C-188.99902832 103.25434082 -189.11133789 102.58290039 -189.22705078 101.89111328 C-190.15792874 95.5455101 -191.19694655 88.39072395 -187.47314453 82.80566406 C-183.67346241 78.65887083 -179.25207581 75.23233591 -174.89990234 71.68896484 C-166.30699805 64.16313961 -156.56862153 49.48869155 -155.6484375 37.93359375 C-155.8694957 35.49108178 -156.26657104 33.29440098 -156.88671875 30.92578125 C-157.93443221 26.63968074 -158.00380171 22.50091149 -157.94921875 18.11328125 C-157.94470703 17.42041016 -157.94019531 16.72753906 -157.93554688 16.01367188 C-157.92385031 14.31767057 -157.90591799 12.62171422 -157.88671875 10.92578125 C-153.98916657 12.11467487 -150.74128463 13.46508819 -147.32421875 15.67578125 C-141.43411111 19.32674873 -135.21649505 22.12798044 -128.88671875 24.92578125 C-129.02851562 25.53421875 -129.1703125 26.14265625 -129.31640625 26.76953125 C-131.64766177 40.67526593 -123.57923117 53.89500873 -115.88671875 64.92578125 C-101.27401777 85.16749934 -79.72070694 96.94550453 -55.88671875 102.92578125 C-55.17700928 103.11269531 -54.4672998 103.29960938 -53.73608398 103.4921875 C-33.16480023 108.56760061 -11.10021617 103.96943316 8.12109375 96.09765625 C11.11328125 94.92578125 11.11328125 94.92578125 13.11328125 94.92578125 C11.8250107 66.31261435 5.02597815 40.83823291 -14.53125 19.09765625 C-15.7110233 17.75862981 -16.81040164 16.34929743 -17.88671875 14.92578125 C-16.70739838 11.38782013 -15.64248266 10.72988116 -12.69921875 8.55078125 C-9.86973572 6.43989709 -7.17385665 4.31211553 -4.57421875 1.92578125 C-1.88671875 -0.07421875 -1.88671875 -0.07421875 0 0 Z " fill="#5BA841" transform="translate(654.88671875,512.07421875)"/>
<path d="M0 0 C15.69345302 14.87770422 24.81029069 36.21156972 29 57 C29.19078125 57.93457031 29.3815625 58.86914062 29.578125 59.83203125 C30.11553244 63.86756306 30.10728426 67.80996708 30.0625 71.875 C30.05798828 72.65875 30.05347656 73.4425 30.04882812 74.25 C30.03714093 76.16670014 30.01920908 78.08336048 30 80 C21.20361114 83.99686943 12.39262922 86.76513099 3 89 C2.13375 89.22816406 1.2675 89.45632813 0.375 89.69140625 C-15.15976971 93.25145764 -31.93688825 91.78514139 -47 87 C-47.67224609 86.79101074 -48.34449219 86.58202148 -49.03710938 86.36669922 C-64.59939359 81.39644816 -77.43147672 73.53034334 -89 62 C-89.8559375 61.15050781 -90.711875 60.30101562 -91.59375 59.42578125 C-100.59930102 50.34713322 -106.81355992 40.5990412 -111.5 28.6875 C-111.90134155 27.70136719 -111.90134155 27.70136719 -112.31079102 26.6953125 C-114.44329709 20.97201595 -113.89576755 16.68730265 -112 11 C-96.64765514 13.95906874 -96.64765514 13.95906874 -91.66796875 21.26171875 C-83.73689946 34.28204562 -76.95337046 47.65677313 -75.5 63.0625 C-74.85175505 66.25433466 -73.97197442 67.02284648 -71.37890625 69.13671875 C-64.6078712 73.45135946 -57.40749577 76.91230637 -50 80 C-51.66706505 58.59137515 -56.03034801 39.17240767 -66 20 C-66 19.34 -66 18.68 -66 18 C-65.12601563 17.97421875 -64.25203125 17.9484375 -63.3515625 17.921875 C-43.244099 16.99448675 -25.24202952 11.53686635 -7.83325195 1.45214844 C-3.31422602 -1.10474201 -3.31422602 -1.10474201 0 0 Z " fill="#FCFDFC" transform="translate(638,527)"/>
<path d="M0 0 C1.47146484 -0.02416992 1.47146484 -0.02416992 2.97265625 -0.04882812 C10.26124683 -0.05368072 16.95424885 0.6287629 22.91015625 5.13671875 C23.72806641 6.05904297 23.72806641 6.05904297 24.5625 7 C25.13097656 7.62261719 25.69945312 8.24523437 26.28515625 8.88671875 C26.68605469 9.35722656 27.08695312 9.82773437 27.5 10.3125 C26.14480015 14.9201795 23.62582193 18.79558932 19.5 21.3125 C2.21639295 24.51245829 -15.85833052 23.09212121 -32.125 16.5 C-35.98638172 15.14136569 -37.57656173 15.33530492 -41.5 16.3125 C-44.35998642 17.76372816 -44.35998642 17.76372816 -47.0625 19.625 C-47.97128906 20.21925781 -48.88007813 20.81351563 -49.81640625 21.42578125 C-55.30671291 24.94798281 -55.30671291 24.94798281 -58.5 30.3125 C-57.654375 30.57417969 -56.80875 30.83585938 -55.9375 31.10546875 C-52.97720412 32.14493628 -50.22405108 33.36357123 -47.40185547 34.72412109 C-32.81050782 41.63581208 -16.61870051 45.00993054 -0.5 45.3125 C-1.12090248 49.65881735 -2.79878859 53.18682019 -4.75 57.0625 C-7.47878665 62.68630811 -9.62803862 68.31045869 -11.375 74.3125 C-11.57770508 75.00569336 -11.78041016 75.69888672 -11.98925781 76.41308594 C-14.29205849 84.65782825 -14.74057341 92.74797151 -15.0625 101.25 C-15.12727539 102.84811523 -15.12727539 102.84811523 -15.19335938 104.47851562 C-15.29874489 107.08973443 -15.40087088 109.70103746 -15.5 112.3125 C-26.70939661 116.28746334 -36.55764635 117.72122135 -48.5 117.6875 C-49.1884198 117.68728851 -49.8768396 117.68707703 -50.58612061 117.68685913 C-63.55424926 117.64707497 -85.65988969 117.15261031 -95.5 107.3125 C-97.87744744 80.47255926 -89.30485813 55.12440499 -72.2890625 34.41796875 C-71.69867188 33.72316406 -71.10828125 33.02835938 -70.5 32.3125 C-69.84773438 31.50425781 -69.19546875 30.69601562 -68.5234375 29.86328125 C-56.24509549 15.28554065 -38.80934572 6.68766642 -20.5 2.3125 C-19.50250732 2.04651001 -19.50250732 2.04651001 -18.48486328 1.77514648 C-12.29759143 0.22106647 -6.361473 -0.0208984 0 0 Z " fill="#FBFCFC" transform="translate(453.5,499.6875)"/>
<path d="M0 0 C0.66741211 0.20898926 1.33482422 0.41797852 2.02246094 0.63330078 C18.02373724 5.68812895 30.09386373 14.37818937 42 26 C42.67804688 26.61617188 43.35609375 27.23234375 44.0546875 27.8671875 C56.79893162 39.70517426 64.61785315 57.86137912 66 75 C64.95779297 74.78150391 64.95779297 74.78150391 63.89453125 74.55859375 C61.92341029 74.17820199 59.93947509 73.86013564 57.94921875 73.59765625 C51.85441725 72.59767085 47.67626837 71.52365207 43.625 66.6875 C42.35587878 64.83181015 41.14918574 62.9322592 40 61 C39.39671875 59.9996875 38.7934375 58.999375 38.171875 57.96875 C33.42964832 49.30903171 30.79827665 40.28156294 28.26171875 30.78515625 C27.92986572 29.55720337 27.92986572 29.55720337 27.59130859 28.30444336 C27.06729906 26.26227737 26.63053251 24.19816346 26.20703125 22.1328125 C24.62260945 18.02049444 22.78981872 16.98002604 19 14.8125 C17.9275 14.17957031 16.855 13.54664063 15.75 12.89453125 C11.3350201 10.53946191 6.66868759 8.7818746 2 7 C3.29038264 27.12419916 6.44871982 45.16024521 15.68359375 63.30859375 C17 66 17 66 17 68 C16.19820313 68.02578125 15.39640625 68.0515625 14.5703125 68.078125 C-5.18274301 69.0635382 -24.16652827 74.38604878 -41.12963867 84.63574219 C-45.44437644 87.1361725 -45.44437644 87.1361725 -48.18359375 86.46484375 C-62.65804714 74.79189747 -70.55462234 56.14869734 -75.375 38.6875 C-75.62580322 37.78088623 -75.87660645 36.87427246 -76.13500977 35.94018555 C-78.2687603 27.78644919 -79.16051559 19.80434059 -79.0625 11.375 C-79.05347656 10.35148437 -79.04445313 9.32796875 -79.03515625 8.2734375 C-79.02355469 7.52320313 -79.01195312 6.77296875 -79 6 C-54.85698581 -5.8155045 -25.67863881 -8.53296383 0 0 Z " fill="#FCFCFC" transform="translate(436,409)"/>
<path d="M0 0 C0.34171006 1.37294222 0.67291117 2.74850118 1 4.125 C1.185625 4.89070312 1.37125 5.65640625 1.5625 6.4453125 C2.69205361 13.04109875 1.41465153 17.25841707 -1.4375 23.125 C-1.97721436 24.24660522 -1.97721436 24.24660522 -2.52783203 25.39086914 C-8.44963616 37.29959426 -17.14527349 48.73227172 -28.2734375 56.1953125 C-31.15903694 59.16359387 -31.41011066 59.57304351 -31.62109375 63.43359375 C-31.59070362 65.10240811 -31.52859226 66.77089653 -31.4375 68.4375 C-31.41880859 69.27087891 -31.40011719 70.10425781 -31.38085938 70.96289062 C-31.25145373 75.38716474 -30.85626524 79.6479081 -30 84 C-10.76022993 78.56391112 2.98146008 58.54860391 14 43 C16.78694747 45.64850299 18.9666318 48.28383396 21.0625 51.5 C30.31351137 64.93080451 42.07700508 75.47463938 55.86328125 84.01953125 C58.34655901 85.58742891 60.69025741 87.19212741 63 89 C60.60055435 105.56880364 52.860794 120.40494747 42 133 C40.79923828 134.41732422 40.79923828 134.41732422 39.57421875 135.86328125 C34.82671937 141.33187546 29.83889601 146.22805277 24.125 150.6875 C23.58987793 151.1095874 23.05475586 151.5316748 22.50341797 151.96655273 C19.4195774 154.28257402 16.90582561 155.90473596 13 156 C-8.52908752 146.0003545 -23.70146568 121.61901453 -31.58447266 100.26708984 C-40.40590679 75.6662405 -38.9821365 50.54012265 -28.30859375 26.69921875 C-17.80757301 5.03890432 -17.80757301 5.03890432 -8.25 1.4375 C-5.28460201 0.50563611 -3.11740605 0 0 0 Z " fill="#FCFDFC" transform="translate(498,538)"/>
<path d="M0 0 C4.09034385 -0.35025582 7.34339175 -0.41111683 11.34375 0.53515625 C14.12878529 3.17195579 15.6751625 5.76681775 17.4921875 9.13671875 C19.49021198 12.80397887 21.6468878 15.54152778 24.34375 18.72265625 C28.34375 23.44562922 28.34375 23.44562922 28.34375 24.53515625 C27.54904297 24.51420898 26.75433594 24.49326172 25.93554688 24.47167969 C4.32472249 23.89651012 4.32472249 23.89651012 -16.65625 28.53515625 C-17.82414062 28.88578125 -18.99203125 29.23640625 -20.1953125 29.59765625 C-44.74904315 37.43742834 -61.13394959 55.01368569 -73.39892578 77.09423828 C-82.41312599 94.594039 -84.00684935 111.16858761 -83.65625 130.53515625 C-81.28600789 131.48633133 -78.91098437 132.42074314 -76.53125 133.34765625 C-75.88542969 133.60869141 -75.23960937 133.86972656 -74.57421875 134.13867188 C-62.73097981 138.70677832 -50.90612527 140.0667547 -38.28125 139.97265625 C-37.60703003 139.97160889 -36.93281006 139.97056152 -36.23815918 139.96948242 C-25.77915357 139.93600567 -16.6006734 138.75416036 -6.65625 135.53515625 C-5.66625 135.53515625 -4.67625 135.53515625 -3.65625 135.53515625 C-3.59566406 136.4271875 -3.53507812 137.31921875 -3.47265625 138.23828125 C-3.38886719 139.40875 -3.30507813 140.57921875 -3.21875 141.78515625 C-3.13753906 142.9453125 -3.05632812 144.10546875 -2.97265625 145.30078125 C-2.72216492 147.86135931 -2.29494482 150.06553628 -1.65625 152.53515625 C-1.61736651 154.86816558 -1.6113865 157.20225426 -1.65625 159.53515625 C-28.51971876 171.19288798 -63.78866573 165.21159624 -90.11743164 155.27880859 C-96.94757271 152.56332623 -103.30492679 149.22164215 -109.65625 145.53515625 C-109.99924838 129.30341734 -110.14359169 113.45532533 -106.65625 97.53515625 C-106.5005957 96.82423828 -106.34494141 96.11332031 -106.18457031 95.38085938 C-101.21520878 73.93622938 -89.41388787 49.33606395 -72.65625 34.53515625 C-71.99625 34.53515625 -71.33625 34.53515625 -70.65625 34.53515625 C-70.32625 33.54515625 -69.99625 32.55515625 -69.65625 31.53515625 C-67.54754367 29.66694216 -65.44935143 27.93302527 -63.21875 26.22265625 C-62.5805835 25.72991211 -61.94241699 25.23716797 -61.28491211 24.72949219 C-46.86397241 13.73830937 -31.09691673 7.0496261 -13.65625 2.53515625 C-12.74230469 2.28765625 -11.82835937 2.04015625 -10.88671875 1.78515625 C-7.29022013 0.92629091 -3.65654907 0.53520002 0 0 Z " fill="#2B619F" transform="translate(442.65625,476.46484375)"/>
<path d="M0 0 C1.50012127 25.4353895 -6.64180428 53.28733455 -23.69482422 72.60107422 C-24.22865723 73.18646973 -24.76249023 73.77186523 -25.3125 74.375 C-25.82828613 74.94105957 -26.34407227 75.50711914 -26.87548828 76.09033203 C-28.18372674 77.46039731 -29.58622618 78.7391232 -31 80 C-34.28797919 80 -35.63261399 79.36792519 -38.53515625 77.91796875 C-39.87416992 77.26151367 -39.87416992 77.26151367 -41.24023438 76.59179688 C-43.09515421 75.66882984 -44.94934408 74.74439402 -46.80273438 73.81835938 C-52.75783968 70.90252869 -58.5816584 68.66241272 -65 67 C-65.74596436 66.80656006 -66.49192871 66.61312012 -67.26049805 66.41381836 C-69.43894985 65.87168725 -71.62159417 65.3642551 -73.8125 64.875 C-74.57933105 64.70323242 -75.34616211 64.53146484 -76.13623047 64.35449219 C-82.74635064 62.93636601 -89.23641766 62.23899584 -96 62 C-95.41451192 58.36482678 -94.4181915 55.55419771 -92.6875 52.3125 C-83.32312742 33.96048247 -81.29867408 16.38965534 -81 -4 C-54.80037665 -15.66242586 -25.49016122 -10.88176473 0 0 Z " fill="#FDFEFC" transform="translate(668,415)"/>
<path d="M0 0 C0.77230957 0.33668701 1.54461914 0.67337402 2.34033203 1.02026367 C5.88936485 2.64312573 7.79357051 3.56535576 10 6.875 C4.85742883 10.75092803 4.85742883 10.75092803 2.76660156 12.30224609 C0.44179943 14.02773856 -1.85888139 15.75620524 -4.07421875 17.62109375 C-7.11887758 20.12637246 -8.76419208 20.87106987 -12.75 20.9375 C-15.95810397 20.29587921 -18.89334429 19.18358248 -21.9375 18 C-40.84884166 10.93082181 -63.62916801 10.04796179 -82.890625 16 C-86 16.875 -86 16.875 -91 16.875 C-91.99 9.285 -92.98 1.695 -94 -6.125 C-64.83484677 -18.62435138 -28.24451907 -12.34036018 0 0 Z " fill="#61A842" transform="translate(678,393.125)"/>
<path d="M0 0 C6.16292966 1.08308912 13.2104878 4.9167688 17 10 C18.56578552 15.21502444 17.76104879 20.69867724 17 26 C15.44179635 26.61516257 13.87802509 27.21621584 12.3125 27.8125 C11.44238281 28.14894531 10.57226562 28.48539063 9.67578125 28.83203125 C-1.4022042 32.35202875 -11.88973661 33.57347549 -23.4375 33.5 C-24.55109894 33.49735641 -24.55109894 33.49735641 -25.68719482 33.49465942 C-47.63143469 33.37898372 -65.53324634 27.79272669 -85 18 C-84.39268186 14.40372396 -84.02202669 14.01829383 -80.98046875 11.4921875 C-79.72398629 10.60853669 -78.45928066 9.7364876 -77.1875 8.875 C-76.55779297 8.43285156 -75.92808594 7.99070312 -75.27929688 7.53515625 C-73.53804335 6.32559714 -71.77749864 5.15540119 -70 4 C-69.31550781 3.54882812 -68.63101562 3.09765625 -67.92578125 2.6328125 C-63.19363991 1.07782894 -57.71159581 3.58399455 -53.125 4.9375 C-50.7530062 5.63530131 -48.37785464 6.32243927 -46 7 C-44.15535156 7.55300781 -44.15535156 7.55300781 -42.2734375 8.1171875 C-37.05404301 9.39842608 -31.84416984 9.25334904 -26.5 9.1875 C-25.50613281 9.18685547 -24.51226562 9.18621094 -23.48828125 9.18554688 C-13.51576644 9.63620129 -13.51576644 9.63620129 -4.6875 6.15234375 C-4.130625 5.42144531 -3.57375 4.69054687 -3 3.9375 C-2.4225 3.20402344 -1.845 2.47054687 -1.25 1.71484375 C-0.8375 1.14894531 -0.425 0.58304688 0 0 Z " fill="#283480" transform="translate(480,512)"/>
<path d="M0 0 C2.70485961 0.23192794 5.26947903 0.55176786 7.9375 1 C8.7939209 1.13535156 9.6503418 1.27070313 10.53271484 1.41015625 C24.28318459 3.69989688 36.52221073 7.7233645 48.9375 14 C50.43872895 14.74884454 51.94002934 15.49754589 53.44140625 16.24609375 C54.59511719 16.82488281 55.74882813 17.40367187 56.9375 18 C56.8359375 20.20703125 56.8359375 20.20703125 55.9375 23 C53.82105128 24.78119858 51.87680114 26.22360478 49.5625 27.6875 C48.97210937 28.07744141 48.38171875 28.46738281 47.7734375 28.86914062 C46.16982643 29.9255736 44.55415148 30.96363274 42.9375 32 C41.9475 32.66 40.9575 33.32 39.9375 34 C34.35823306 33.66039245 29.45811195 31.92667871 24.25 30.0625 C7.70192041 24.38397371 -7.77974726 24.52912743 -25.0625 26 C-23.55921154 22.52661246 -21.52841279 20.1773677 -18.9375 17.4375 C-15.49895354 13.78097912 -12.94366369 10.17459905 -10.375 5.875 C-7.24365827 1.5739742 -5.35308749 0.21823138 0 0 Z " fill="#418739" transform="translate(577.0625,476)"/>
<path d="M0 0 C0.35162744 2.33184515 0.68430096 4.66317619 1 7 C1.14453613 8.03350586 1.14453613 8.03350586 1.29199219 9.08789062 C2.88135111 22.07454828 2.88135111 22.07454828 -0.11914062 26.74023438 C-3.1114342 29.93719919 -6.67465517 32.35790704 -10.29003906 34.79833984 C-23.33842243 43.96797761 -30.94227304 58.69901322 -37 73 C-39 72 -39 72 -40.11328125 68.97265625 C-40.51849247 67.67096153 -40.91788275 66.3674454 -41.3125 65.0625 C-43.07810207 59.41646117 -45.13811819 54.35483741 -48.1796875 49.24609375 C-49.34794525 46.04729276 -48.96691943 44.25827471 -48 41 C-46.48761021 38.64194187 -45.01584765 36.58440219 -43.25 34.4375 C-42.51571777 33.53004028 -42.51571777 33.53004028 -41.76660156 32.60424805 C-32.1814068 20.97652992 -21.51087574 11.39424567 -9 3 C-8.113125 2.40445312 -7.22625 1.80890625 -6.3125 1.1953125 C-4 0 -4 0 0 0 Z " fill="#438B39" transform="translate(562,397)"/>
<path d="M0 0 C0.65742187 0.13277344 1.31484375 0.26554688 1.9921875 0.40234375 C11.30002253 2.13022098 20.56233619 2.60152086 30 3 C39.6819156 22.62810185 47.35359954 42.69067428 46 65 C40.08366467 63.36790749 34.94762333 61.06295104 29.625 58.0625 C29.01833496 57.72669922 28.41166992 57.39089844 27.78662109 57.04492188 C24.43640486 55.10911657 21.87669686 53.42448809 20 50 C19.48046875 47.546875 19.48046875 47.546875 19.1875 44.75 C17.11142134 30.85883955 10.58093183 15.22043227 1.7578125 4.19921875 C0 2 0 2 0 0 Z " fill="#2773AE" transform="translate(542,542)"/>
<path d="M0 0 C1.71436547 2.5715482 2.76149372 4.68347402 3.875 7.52734375 C4.22046875 8.40197266 4.5659375 9.27660156 4.921875 10.17773438 C5.45554687 11.54381836 5.45554687 11.54381836 6 12.9375 C6.70673604 14.73890872 7.41501472 16.53971316 8.125 18.33984375 C8.43695313 19.13769287 8.74890625 19.93554199 9.0703125 20.75756836 C9.96670291 23.01419256 9.96670291 23.01419256 11.12304688 25.14355469 C12.40410821 27.85546738 11.96841647 29.18240899 11 32 C9.56065578 34.17900722 8.12901749 36.16310166 6.5 38.1875 C6.05003662 38.75629883 5.60007324 39.32509766 5.13647461 39.91113281 C-4.59257643 52.09508224 -15.72176472 64.10206877 -30 71 C-30.99 70.67 -31.98 70.34 -33 70 C-33.35455136 68.00365222 -33.68128933 66.00238224 -34 64 C-34.11230957 63.32855957 -34.22461914 62.65711914 -34.34033203 61.96533203 C-35.27120999 55.61972885 -36.3102278 48.4649427 -32.58642578 42.87988281 C-28.78544791 38.73167547 -24.3623793 35.30349429 -20.00878906 31.75878906 C-10.59251781 23.51440184 -5.17404413 11.12853067 0 0 Z " fill="#27337E" transform="translate(500,552)"/>
<path d="M0 0 C-0.35954723 18.79451406 -7.06116537 38.84364669 -19.29296875 53.3671875 C-24.05743036 57.92449861 -30.74220652 58.79384933 -37 60 C-37.37036083 58.65017251 -37.72035424 57.29475372 -38.0625 55.9375 C-38.25972656 55.18339844 -38.45695313 54.42929687 -38.66015625 53.65234375 C-39.54376951 46.75609776 -37.15000994 41.55863886 -33.9375 35.6875 C-33.53120361 34.93766846 -33.12490723 34.18783691 -32.70629883 33.4152832 C-27.74398499 24.46997053 -11.77904434 0 0 0 Z " fill="#FBFCFA" transform="translate(563,423)"/>
<path d="M0 0 C0.99 0.99 0.99 0.99 2 2 C-15.00964303 11.77149706 -37.81936253 15.13455671 -57 12 C-62.17509224 9.69256783 -65.19505408 5.86717377 -68 1 C-65.45291096 -4.20119863 -65.45291096 -4.20119863 -63 -6 C-41.8058107 -12.57750702 -20.03076235 -8.29416803 0 0 Z " fill="#FBFCF9" transform="translate(612,509)"/>
<path d="M0 0 C-1.26953125 1.46484375 -2.5390625 2.9296875 -3.80859375 4.39453125 C-5.20871231 6.10712971 -5.20871231 6.10712971 -6 9 C-5.40574219 9.22945313 -4.81148437 9.45890625 -4.19921875 9.6953125 C-1.41034776 11.34981145 -0.42580434 13.07971176 1.1875 15.875 C1.69667969 16.73867188 2.20585938 17.60234375 2.73046875 18.4921875 C4.82668573 22.63302228 4.82668573 22.63302228 5 25 C3.5625 26.75 3.5625 26.75 2 28 C1.11248047 27.29423828 1.11248047 27.29423828 0.20703125 26.57421875 C-0.58316406 25.95160156 -1.37335937 25.32898438 -2.1875 24.6875 C-3.35345703 23.76517578 -3.35345703 23.76517578 -4.54296875 22.82421875 C-6.93919391 20.90301711 -6.93919391 20.90301711 -9.78125 19.78125 C-12 18 -12 18 -12.48828125 14.20703125 C-12.45512197 12.74139115 -12.39558979 11.27615861 -12.3125 9.8125 C-12.27866211 8.68811523 -12.27866211 8.68811523 -12.24414062 7.54101562 C-12.18529157 5.6931553 -12.09560938 3.84632333 -12 2 C-10.75579353 1.4654744 -9.50429064 0.94791389 -8.25 0.4375 C-7.55390625 0.14746094 -6.8578125 -0.14257812 -6.140625 -0.44140625 C-3.69987216 -1.07831803 -2.3596345 -0.80248831 0 0 Z " fill="#5B9E3D" transform="translate(539,481)"/>
<path d="M0 0 C8.60014008 3.05266233 20.69781527 11.01147206 25.21484375 19.203125 C25.60349609 20.09257813 25.60349609 20.09257813 26 21 C17.22458584 19.94062568 5.50383308 18.50383308 -1 12 C-0.9765625 9.1796875 -0.9765625 9.1796875 -0.625 5.875 C-0.51414062 4.77929688 -0.40328125 3.68359375 -0.2890625 2.5546875 C-0.14597656 1.29011719 -0.14597656 1.29011719 0 0 Z " fill="#1F5D94" transform="translate(527,499)"/>
<path d="M0 0 C6.53210112 0.38817814 12.01695604 1.28043457 18 4 C19.38226016 6.76452033 19.09525387 9.0461363 19.0625 12.125 C19.05347656 13.22070312 19.04445313 14.31640625 19.03515625 15.4453125 C19.02355469 16.28835938 19.01195312 17.13140625 19 18 C16.31836993 16.0194052 13.65484954 14.01634142 11 12 C10.44183594 11.58234375 9.88367188 11.1646875 9.30859375 10.734375 C5.32361477 7.61298154 2.77985182 4.16977773 0 0 Z " fill="#2B70A5" transform="translate(484,480)"/>
<path d="M0 0 C-1.07507629 1.29854721 -2.16043736 2.58858361 -3.25 3.875 C-3.85328125 4.59429687 -4.4565625 5.31359375 -5.078125 6.0546875 C-6.97087634 7.97052118 -8.53657727 8.96449045 -11 10 C-11 12.64 -11 15.28 -11 18 C-11.33 18 -11.66 18 -12 18 C-12 12.72 -12 7.44 -12 2 C-3.96428571 -1.34821429 -3.96428571 -1.34821429 0 0 Z " fill="#3F7F3E" transform="translate(539,481)"/>
<path d="M0 0 C1.94921875 0.78125 1.94921875 0.78125 4 2 C5.41996484 8.11677161 4.82305086 13.82078736 4 20 C3.34 20 2.68 20 2 20 C2 21.32 2 22.64 2 24 C3.98 23.67 5.96 23.34 8 23 C6.1875 24.5625 6.1875 24.5625 4 26 C3.01 25.67 2.02 25.34 1 25 C-0.10941367 19.67132017 -0.11548069 14.53718145 -0.0625 9.125 C-0.05798828 8.24585938 -0.05347656 7.36671875 -0.04882812 6.4609375 C-0.03712337 4.30726197 -0.01919069 2.15362183 0 0 Z " fill="#404C8B" transform="translate(466,597)"/>
<path d="M0 0 C2.875 -0.1875 2.875 -0.1875 6 0 C6.66 0.99 7.32 1.98 8 3 C6.10934188 4.4654862 4.21298003 5.92234703 2.3125 7.375 C1.51682617 7.99375 1.51682617 7.99375 0.70507812 8.625 C-2.40498266 10.99093582 -5.29378434 12.74855056 -9 14 C-8.60167969 13.57589844 -8.20335937 13.15179688 -7.79296875 12.71484375 C-4.14137539 8.67232555 -1.87842746 5.11349698 0 0 Z " fill="#458D36" transform="translate(680,397)"/>
<path d="M0 0 C2 1 2 1 3.125 4.1875 C4.60675121 10.6437017 4.31326929 14.20177874 1 20 C0.67 20 0.34 20 0 20 C0 13.4 0 6.8 0 0 Z " fill="#26317E" transform="translate(520,461)"/>
<path d="M0 0 C0.02694851 1.95825873 0.04637218 3.91662226 0.0625 5.875 C0.07410156 6.96554687 0.08570313 8.05609375 0.09765625 9.1796875 C0 12 0 12 -1 14 C-1.66 14 -2.32 14 -3 14 C-5.63529412 6.91764706 -5.63529412 6.91764706 -5 3 C-1.79310345 0 -1.79310345 0 0 0 Z " fill="#26317C" transform="translate(504,463)"/>
<path d="M0 0 C3.83736322 0.95934081 4.59660228 1.23609263 7 4 C4.47519307 6.52480693 2.86176966 6.55738633 -0.625 7.125 C-1.62789063 7.29257812 -2.63078125 7.46015625 -3.6640625 7.6328125 C-4.43492187 7.75398437 -5.20578125 7.87515625 -6 8 C-4.02 5.36 -2.04 2.72 0 0 Z " fill="#22712A" transform="translate(480,512)"/>
<path d="M0 0 C3.38351811 1.12783937 3.52883475 1.45088872 5.0625 4.4375 C6.26019398 6.74149765 7.13152817 8.13152817 9 10 C9.70710678 11.64991582 10.37943989 13.31562256 11 15 C11.66 15 12.32 15 13 15 C14.7265625 16.96875 14.7265625 16.96875 16.625 19.5 C17.57246094 20.75296875 17.57246094 20.75296875 18.5390625 22.03125 C19.02117187 22.6809375 19.50328125 23.330625 20 24 C19.01 24 18.02 24 17 24 C0 6.97027972 0 6.97027972 0 0 Z " fill="#54A040" transform="translate(453,476)"/>
<path d="M0 0 C0.99 0.33 1.98 0.66 3 1 C1.68 1.33 0.36 1.66 -1 2 C-0.67 7.94 -0.34 13.88 0 20 C-0.99 20.33 -1.98 20.66 -3 21 C-3.08687496 17.87517438 -3.14034568 14.75065754 -3.1875 11.625 C-3.21263672 10.73554688 -3.23777344 9.84609375 -3.26367188 8.9296875 C-3.27333984 8.07890625 -3.28300781 7.228125 -3.29296875 6.3515625 C-3.3086792 5.56604004 -3.32438965 4.78051758 -3.34057617 3.97119141 C-3.22818604 3.32069824 -3.1157959 2.67020508 -3 2 C-2.01 1.34 -1.02 0.68 0 0 Z " fill="#343B8D" transform="translate(358,413)"/>
<path d="M0 0 C4.95757898 1.54826599 9.63810401 3.51780938 14.375 5.625 C15.11105469 5.94984375 15.84710937 6.2746875 16.60546875 6.609375 C18.40470969 7.40384503 20.20250496 8.20158771 22 9 C21.67 9.99 21.34 10.98 21 12 C21 11.34 21 10.68 21 10 C20.43152344 9.81824219 19.86304688 9.63648438 19.27734375 9.44921875 C15.4825148 8.21384038 11.76700145 6.95023084 8.125 5.3125 C5.10391507 3.80638376 5.10391507 3.80638376 2 4 C1.34 4.66 0.68 5.32 0 6 C0 4.02 0 2.04 0 0 Z " fill="#226D9B" transform="translate(561,627)"/>
<path d="M0 0 C1.30904297 0.32097656 1.30904297 0.32097656 2.64453125 0.6484375 C3.96517578 0.94621094 3.96517578 0.94621094 5.3125 1.25 C7.45703125 2.0234375 7.45703125 2.0234375 8.45703125 4.0234375 C3.50703125 4.0234375 -1.44296875 4.0234375 -6.54296875 4.0234375 C-2.54296875 0.0234375 -2.54296875 0.0234375 0 0 Z " fill="#225B9B" transform="translate(371.54296875,611.9765625)"/>
<path d="M0 0 C8.25 0.33 16.5 0.66 25 1 C25 1.33 25 1.66 25 2 C17.08 2.33 9.16 2.66 1 3 C0.67 2.01 0.34 1.02 0 0 Z " fill="#4E5898" transform="translate(385,403)"/>
<path d="M0 0 C-0.33 0.66 -0.66 1.32 -1 2 C-4.01953125 2.484375 -4.01953125 2.484375 -7.8125 2.75 C-9.67841797 2.89695312 -9.67841797 2.89695312 -11.58203125 3.046875 C-14.81812088 3.00249434 -16.34190375 2.74081871 -19 1 C-12.65758005 -0.15316726 -6.43311296 -0.09507063 0 0 Z " fill="#1D2877" transform="translate(433,536)"/>
<path d="M0 0 C0.33 0 0.66 0 1 0 C1 3.63 1 7.26 1 11 C0.01 11 -0.98 11 -2 11 C-2.33 8.69 -2.66 6.38 -3 4 C-2.34 4 -1.68 4 -1 4 C-0.67 2.68 -0.34 1.36 0 0 Z " fill="#1E6BA8" transform="translate(559,560)"/>
<path d="M0 0 C2.475 0.495 2.475 0.495 5 1 C4.25 7.75 4.25 7.75 2 10 C0.68373308 6.38026598 0 3.90432869 0 0 Z " fill="#252C65" transform="translate(521,536)"/>
<path d="M0 0 C4.62 0 9.24 0 14 0 C14 0.33 14 0.66 14 1 C13.24074219 1.01417969 12.48148437 1.02835938 11.69921875 1.04296875 C8.72324735 1.1857845 5.91886201 1.3946064 3 2 C0.90023803 4.30237282 0.90023803 4.30237282 0 7 C-0.99 7.66 -1.98 8.32 -3 9 C-2.01 6.03 -1.02 3.06 0 0 Z " fill="#2B68AB" transform="translate(453,545)"/>
<path d="M0 0 C0.33 0 0.66 0 1 0 C1.08078641 2.12438339 1.13909141 4.2496323 1.1875 6.375 C1.22230469 7.55835938 1.25710938 8.74171875 1.29296875 9.9609375 C1.19628906 10.96382813 1.09960938 11.96671875 1 13 C0.01 13.66 -0.98 14.32 -2 15 C-1.67 13.35 -1.34 11.7 -1 10 C-1.66 9.67 -2.32 9.34 -3 9 C-2.34 9 -1.68 9 -1 9 C-1.020625 7.700625 -1.04125 6.40125 -1.0625 5.0625 C-1.08399454 3.70834367 -1.07148199 2.35243917 -1 1 C-0.67 0.67 -0.34 0.34 0 0 Z " fill="#212B7C" transform="translate(343,448)"/>
<path d="M0 0 C2.71675995 0.36712972 4.61063713 0.72744599 6.875 2.3125 C8 4 8 4 7.6875 6.1875 C7.460625 6.785625 7.23375 7.38375 7 8 C3.83282717 6.41641358 2.26731682 5.54736301 0.6875 2.3125 C0.460625 1.549375 0.23375 0.78625 0 0 Z " fill="#428C3A" transform="translate(455,425)"/>
<path d="M0 0 C0 2.31 0 4.62 0 7 C-0.99 7 -1.98 7 -3 7 C-6 3.66666667 -6 3.66666667 -6 1 C-3.92446352 0.4465236 -2.15634036 0 0 0 Z " fill="#263180" transform="translate(360,488)"/>
<path d="M0 0 C0.66 0.33 1.32 0.66 2 1 C0.90033225 2.29549899 -0.20491801 3.58626071 -1.3125 4.875 C-1.92738281 5.59429687 -2.54226563 6.31359375 -3.17578125 7.0546875 C-5 9 -5 9 -8 11 C-7.70100785 7.41209425 -7.23013399 6.21833224 -4.5625 3.6875 C-2 2 -2 2 0 2 C0 1.34 0 0.68 0 0 Z " fill="#3C8034" transform="translate(537,480)"/>
<path d="M0 0 C0.66 0.99 1.32 1.98 2 3 C0.515 5.475 0.515 5.475 -1 8 C-2.32 7.67 -3.64 7.34 -5 7 C-4.60196439 4.11424181 -4.20990931 3.17810487 -1.9375 1.25 C-1.298125 0.8375 -0.65875 0.425 0 0 Z " fill="#323C82" transform="translate(400,523)"/>
<path d="M0 0 C0.66 0.33 1.32 0.66 2 1 C1.125 5.875 1.125 5.875 0 7 C-1.66617115 7.04063832 -3.33388095 7.042721 -5 7 C-3.70700306 4.11562221 -2.34058637 2.12780579 0 0 Z " fill="#387C36" transform="translate(557,495)"/>
<path d="M0 0 C0.99 0.99 1.98 1.98 3 3 C0.03716687 5.38672669 -2.94270509 7.7353371 -6 10 C-6.66 9.67 -7.32 9.34 -8 9 C-6.8553125 7.88625 -6.8553125 7.88625 -5.6875 6.75 C-3.5606298 4.5736677 -1.7440044 2.47832204 0 0 Z " fill="#4B9735" transform="translate(679,401)"/>
<path d="M0 0 C1.485 0.99 1.485 0.99 3 2 C3.375 5.4375 3.375 5.4375 3 9 C2.01 9.99 1.02 10.98 0 12 C0 8.04 0 4.08 0 0 Z " fill="#2472AF" transform="translate(576,643)"/>
<path d="M0 0 C0.33 0 0.66 0 1 0 C1 1.98 1 3.96 1 6 C-1.95664519 7.4783226 -4.74229737 7.06032783 -8 7 C-8 6.34 -8 5.68 -8 5 C-5.36 4.34 -2.72 3.68 0 3 C0 2.01 0 1.02 0 0 Z " fill="#1F2A74" transform="translate(496,532)"/>
<path d="M0 0 C0.99773437 0.02320313 1.99546875 0.04640625 3.0234375 0.0703125 C4.52777344 0.09738281 4.52777344 0.09738281 6.0625 0.125 C6.83335937 0.14820313 7.60421875 0.17140625 8.3984375 0.1953125 C8.7284375 0.8553125 9.0584375 1.5153125 9.3984375 2.1953125 C4.37547746 3.32547851 0.41969676 2.97447342 -4.6015625 2.1953125 C-2.6015625 0.1953125 -2.6015625 0.1953125 0 0 Z " fill="#1F589A" transform="translate(436.6015625,495.8046875)"/>
<path d="M0 0 C2.32286474 3.48429711 2.08480112 4.92954615 2 9 C2.33 9.99 2.66 10.98 3 12 C2.34 12.66 1.68 13.32 1 14 C-0.75417412 9.50492881 -1.28362108 5.8215583 -1 1 C-0.67 0.67 -0.34 0.34 0 0 Z " fill="#489A3C" transform="translate(501,544)"/>
<path d="M0 0 C-1.65 1.98 -3.3 3.96 -5 6 C-7.1385485 3.8614515 -7.42655063 2.86724686 -8 0 C-4.71303767 -0.79953138 -3.28976808 -1.09658936 0 0 Z " fill="#2C6AA8" transform="translate(484,543)"/>
<path d="M0 0 C1.62463842 -0.05395478 3.24978541 -0.09277195 4.875 -0.125 C5.77992188 -0.14820313 6.68484375 -0.17140625 7.6171875 -0.1953125 C10 0 10 0 12 2 C10.11940967 3.88059033 7.50109962 3.12361218 5.0078125 3.1328125 C3 3 3 3 0 2 C0 1.34 0 0.68 0 0 Z " fill="#1A256F" transform="translate(410,517)"/>
<path d="M0 0 C-0.33 0.66 -0.66 1.32 -1 2 C-3.50390625 2.4140625 -3.50390625 2.4140625 -6.5625 2.625 C-7.57441406 2.69976563 -8.58632813 2.77453125 -9.62890625 2.8515625 C-10.41136719 2.90054688 -11.19382812 2.94953125 -12 3 C-12 2.34 -12 1.68 -12 1 C-8.0186217 -0.3271261 -4.14954773 -0.06915913 0 0 Z " fill="#215697" transform="translate(377,632)"/>
<path d="M0 0 C0.99 0.495 0.99 0.495 2 1 C2.40961596 3.32115711 2.73128549 5.65834501 3 8 C3.3274322 10.00097458 3.65876419 12.00133314 4 14 C3.01 13.67 2.02 13.34 1 13 C0.29826347 8.61414671 -0.10834375 4.44209357 0 0 Z " fill="#438240" transform="translate(520,535)"/>
<path d="M0 0 C2 3 2 3 1.57421875 5.19140625 C1.13529297 6.36509766 1.13529297 6.36509766 0.6875 7.5625 C0.40261719 8.34753906 0.11773438 9.13257813 -0.17578125 9.94140625 C-1 12 -1 12 -2 14 C-2.66 14 -3.32 14 -4 14 C-3.79503906 13.32453125 -3.59007812 12.6490625 -3.37890625 11.953125 C-3.10949219 11.06109375 -2.84007812 10.1690625 -2.5625 9.25 C-2.16224609 7.92742187 -2.16224609 7.92742187 -1.75390625 6.578125 C-1.11531506 4.39434165 -0.53224167 2.21164502 0 0 Z " fill="#98CC5C" transform="translate(664,446)"/>
<path d="M0 0 C0.66 0 1.32 0 2 0 C3.32 2.97 4.64 5.94 6 9 C5.01 9 4.02 9 3 9 C0.72162458 6.72162458 0.03353711 5.49187763 -0.1875 2.25 C-0.125625 1.5075 -0.06375 0.765 0 0 Z " fill="#26327F" transform="translate(486,440)"/>
<path d="M0 0 C0 0.66 0 1.32 0 2 C-4.47058824 6 -4.47058824 6 -7 6 C-7.33 4.68 -7.66 3.36 -8 2 C-2.25 0 -2.25 0 0 0 Z " fill="#519345" transform="translate(537,480)"/>
<path d="M0 0 C3.01357974 2.87659884 4.95458757 4.84198305 5.125 9.1875 C5.08375 10.115625 5.0425 11.04375 5 12 C4.01 12 3.02 12 2 12 C2.04125 11.13375 2.0825 10.2675 2.125 9.375 C1.99542279 5.87641532 1.23980344 3.25448403 0 0 Z " fill="#50A03F" transform="translate(470,460)"/>
<path d="M0 0 C0.66 0.33 1.32 0.66 2 1 C-0.97 4.96 -0.97 4.96 -4 9 C-4.33 8.01 -4.66 7.02 -5 6 C-2.66666667 1.33333333 -2.66666667 1.33333333 0 0 Z " fill="#8DC155" transform="translate(663,498)"/>
<path d="M0 0 C0.33 1.32 0.66 2.64 1 4 C0.01 4.495 0.01 4.495 -1 5 C-1 8.63 -1 12.26 -1 16 C-1.33 16 -1.66 16 -2 16 C-2.05384521 13.70858714 -2.09272087 11.41681812 -2.125 9.125 C-2.14820313 7.84882812 -2.17140625 6.57265625 -2.1953125 5.2578125 C-2 2 -2 2 0 0 Z " fill="#202C74" transform="translate(469,594)"/>
<path d="M0 0 C4.3890815 0.51035831 7.33708062 1.52214277 11 4 C7.01178789 5.32940404 4.88269755 4.43803613 1 3 C0.67 2.01 0.34 1.02 0 0 Z " fill="#559849" transform="translate(442,418)"/>
<path d="M0 0 C2.31 0 4.62 0 7 0 C7 0.99 7 1.98 7 3 C4.69 3 2.38 3 0 3 C0 2.01 0 1.02 0 0 Z " fill="#1B287B" transform="translate(440,389)"/>
<path d="M0 0 C3.77545388 1.09068668 6.47043472 1.9083091 9 5 C7.88625 4.79375 6.7725 4.5875 5.625 4.375 C4.42875 4.25125 3.2325 4.1275 2 4 C1.34 4.66 0.68 5.32 0 6 C0 4.02 0 2.04 0 0 Z " fill="#1D6790" transform="translate(561,627)"/>
<path d="M0 0 C1.875 0.875 1.875 0.875 3.875 3.875 C0.575 3.545 -2.725 3.215 -6.125 2.875 C-2.125 -0.125 -2.125 -0.125 0 0 Z " fill="#5A994F" transform="translate(586.125,498.125)"/>
<path d="M0 0 C-0.99 1.485 -0.99 1.485 -2 3 C-5.625 3.1875 -5.625 3.1875 -9 3 C-9.33 2.34 -9.66 1.68 -10 1 C-6.59437148 0.22157062 -3.49234244 -0.09978121 0 0 Z " fill="#569E38" transform="translate(666,408)"/>
<path d="M0 0 C2.31 0 4.62 0 7 0 C7 0.99 7 1.98 7 3 C5.02 3 3.04 3 1 3 C0.67 2.01 0.34 1.02 0 0 Z " fill="#212C7F" transform="translate(360,408)"/>
<path d="M0 0 C0.33 0 0.66 0 1 0 C1 2.31 1 4.62 1 7 C0.01 7.33 -0.98 7.66 -2 8 C-2 6.02 -2 4.04 -2 2 C-1.34 2 -0.68 2 0 2 C0 1.34 0 0.68 0 0 Z " fill="#344189" transform="translate(503,475)"/>
<path d="M0 0 C0.66 0.33 1.32 0.66 2 1 C1.67 1.99 1.34 2.98 1 4 C0.34 4 -0.32 4 -1 4 C-1.33 5.32 -1.66 6.64 -2 8 C-2.99 7.67 -3.98 7.34 -5 7 C-3.35 4.69 -1.7 2.38 0 0 Z " fill="#509944" transform="translate(518,433)"/>
<path d="M0 0 C1.98 0.66 3.96 1.32 6 2 C1.125 6 1.125 6 0 6 C0 4.02 0 2.04 0 0 Z " fill="#34A3D6" transform="translate(521,712)"/>
<path d="M0 0 C0.66 0 1.32 0 2 0 C1.67 1.98 1.34 3.96 1 6 C-0.32 5.34 -1.64 4.68 -3 4 C-1.625 2 -1.625 2 0 0 Z " fill="#4FA03D" transform="translate(542,608)"/>
<path d="M0 0 C3.63 0 7.26 0 11 0 C10.67 0.99 10.34 1.98 10 3 C3.375 2.25 3.375 2.25 0 0 Z " fill="#475492" transform="translate(414,538)"/>
<path d="M0 0 C1.32 0.66 2.64 1.32 4 2 C4 3.65 4 5.3 4 7 C2.35 5.35 0.7 3.7 -1 2 C-0.67 1.34 -0.34 0.68 0 0 Z " fill="#2DA2D1" transform="translate(469,685)"/>
<path d="M0 0 C0.33 0.99 0.66 1.98 1 3 C-1.97 5.475 -1.97 5.475 -5 8 C-5.66 7.67 -6.32 7.34 -7 7 C-4.69 4.69 -2.38 2.38 0 0 Z " fill="#90C95D" transform="translate(644,487)"/>
<path d="M0 0 C2.26609984 4.53219967 1.92735976 6.17772925 1 11 C0.34 11 -0.32 11 -1 11 C-0.67 7.37 -0.34 3.74 0 0 Z " fill="#212D7E" transform="translate(361,453)"/>
<path d="M0 0 C2.12508244 3.18762365 2.5020163 5.26512223 3 9 C2.01 8.67 1.02 8.34 0 8 C0 5.36 0 2.72 0 0 Z " fill="#4C5999" transform="translate(362,453)"/>
<path d="M0 0 C0.66 0 1.32 0 2 0 C2 1.98 2 3.96 2 6 C1.01 6.33 0.02 6.66 -1 7 C-0.67 4.69 -0.34 2.38 0 0 Z " fill="#3F4790" transform="translate(356,427)"/>
<path d="M0 0 C0.144375 0.61875 0.28875 1.2375 0.4375 1.875 C0.93152225 4.03258322 0.93152225 4.03258322 2 6 C0.35 6 -1.3 6 -3 6 C-2.42655063 3.13275314 -2.1385485 2.1385485 0 0 Z " fill="#66AA45" transform="translate(446,377)"/>
</svg>
